<svg version="1.1" id="svg-draw" xmlns="http://www.w3.org/2000/svg" xmlns:xlink="http://www.w3.org/1999/xlink" x="0px"
	y="0px" viewBox="0 0 160 50" xml:space="preserve" xmlns:svgjs="http://svgjs.com/svgjs">
	<g id="svg-content">
		<g id="svg-logo" class="svg-element" transform="matrix(0.3,0,0,0.3,0,-8)"
			style="cursor: pointer;">
			<!--231F20-->
			<path fill="#231F20" d="M174.7,84c-3.8-0.1-7.5,0.9-10.8,2.8c-7.1-39.3-70-31.6-70-59c0-3.4,0.4-3.1,1.1-4.6
	c-9.3,4.5-16.2,13.3-13.2,19c-5.4-1.5-6.3-4.9-6.8-7.9c-2.3,2.5-8.1,11.5-2.4,20c-22.3,4.7-32.4,23.6-31.1,33
	c-3.9-3.3-8.8-5.6-13.7-5.6c-14,0-27.6,7.9-27.6,23.2C0,125.8,21.7,142,31.4,142c0.6,0,1.2-0.1,1.8-0.2
	c6.3,16.8,34.9,29.2,52.9,29.2c4.7,3.8,10.5,5.9,16.6,5.8c5.3,0,10.6-1.6,15-4.6c14.7-2.1,44.8-6.3,48.5-30.6c1.2,0.8,2.6,1.2,4,1.2
	c12.5,0,29.8-17.9,29.8-38.1C200,88.5,182.3,84,174.7,84z M183.2,117.1c0,6-3.4,11.3-8.7,11.5c-3.3,0.1-6.4-1.4-8.2-4.1
	c-1.4,4.5-4,8.5-7.5,11.6c-1.7,21.6-20.3,26.1-39.5,30.9c-3.6,5-10,7.2-16.4,7.2c-7.6,0-13.7-3-17.4-7.2c-9.1,1-43.8-14.6-43.8-35.1
	c0-1.2,0.2-2.5,0.5-3.7c-1.6-3.3-2.6-6.8-3.1-10.3c-0.3-1.9-0.8-3.7-1.5-5.4c0.1,0.7,0.1,1.4,0.1,2.1c0,4.5-3.2,12.5-10.9,12.2
	c-5.3-0.2-8.7-5.5-8.7-11.5c0-5.3,3.2-11.6,9.5-13c-2.5-1.7-6-1.9-9-1.9c-0.9,0-1.8,0.1-2.6,0.3c2.6-1.6,5.6-2.4,8.6-2.5
	c3.8,0,7.4,1.9,9.5,5v-5.8c0-1,0.7-1.9,1.7-2.2c3.3-0.8,11.3-2.5,21.5-4c0.7-0.1,1.4-0.2,2.1-0.3c3.3-11.4,13.2-20.3,26-20.3
	c6.8,0,13.8,2.5,17.8,8.1c2.8-2.9,10.7-6.1,19.4-5.9c10.5,0.3,20.6,7.3,24.8,18c0.7,0.1,1.5,0.2,2.2,0.3c10.3,1.5,18.2,3.2,21.5,4
	c1,0.2,1.7,1.1,1.7,2.2v3.4c1.3-0.5,2.6-0.7,4-0.7c3,0.1,6,0.9,8.6,2.5c-0.9-0.2-1.7-0.3-2.6-0.3c-3.1,0-6.6,0.3-9,1.9
	C180,105.6,183.2,111.9,183.2,117.1z"></path>
			<path fill="#231F20" d="M58.3,99.1c0-0.3,0-0.6,0-0.9c-5.2,1.3-11.5,4.5-11.9,12.5c-0.2,3.3,0,6.5,0.6,9.7c3.5-3,8.9-5,16.5-5.1
	C60.3,110.5,58.5,104.9,58.3,99.1z"></path>
			<path fill="#231F20" d="M149.3,98.9c0.1,1.1,0.2,2.1,0.2,3.2c0,4.9-0.9,9.7-2.7,14.2c4.6,1.7,8.4,5.1,10.6,9.6
	c1.8-3.5,2.9-8.3,2.6-15.1C159.7,103.5,154.2,100.3,149.3,98.9z"></path>
			<ellipse fill="#231F20" cx="103.2" cy="151.3" rx="4.4" ry="9.7"></ellipse>
			<path fill="#231F20" d="M128.9,102.5c-1.1,0-2.3,0.3-3.2,0.9c1.6,0.9,2.1,2.9,1.2,4.5s-2.9,2.1-4.5,1.2c0,0.1,0,0.2,0,0.3
	c0.2,3.6,3.3,6.3,6.9,6.1c3.6-0.2,6.3-3.3,6.1-6.9C135.2,105.2,132.3,102.5,128.9,102.5L128.9,102.5z"></path>
			<path fill="#231F20" d="M78.3,103.2c1.5,1,1.9,3.1,0.8,4.6c-1,1.4-2.9,1.8-4.4,0.9c0,0.2,0,0.4,0,0.7c0.2,3.6,3.3,6.3,6.9,6.1
	c3.6-0.2,6.3-3.3,6.1-6.9c-0.2-3.4-3-6.1-6.5-6.1C80.2,102.5,79.2,102.7,78.3,103.2z"></path>
			<path fill="#E52629"
				d="M170.2,110.4l2-2c0.4-0.4,0.7-1,0.6-1.6v-9.4c0-1-0.7-1.9-1.7-2.2c-3.3-0.8-11.3-2.5-21.5-4
	c-0.7-0.1-1.5-0.2-2.2-0.3c-13-1.4-25.6,1-28.4,2.9c-1.6,1.1-3.4,2-5.3,2.7H93.3c-1.9-0.6-3.7-1.5-5.3-2.7
	C85.2,92,72.5,89.5,59.5,91c-0.7,0.1-1.4,0.2-2.1,0.3c-10.3,1.5-18.2,3.2-21.5,4c-1,0.2-1.7,1.1-1.7,2.2v9.4c0,0.6,0.2,1.2,0.7,1.6
	l2,2c0,0,0.4,0.8,0.8,2.1c0.6,1.8,1.1,3.6,1.4,5.5c0.5,3.6,1.6,7.1,3.1,10.4c3,6,8.8,12.5,20.5,13.4c20.5,1.6,27.1-7.6,30.6-17
	s3.1-18.5,8.2-19.5c0.8-0.2,1.5-0.3,2-0.4s1.2,0.2,2,0.4c5.2,1.1,4.8,10.1,8.2,19.5s10.1,18.6,30.6,17c6.5-0.5,11.2-2.7,14.6-5.6
	c3.5-3.1,6.2-7.2,7.6-11.7c0.7-2.1,1.2-4.3,1.6-6.6C168.4,115.4,169.2,112.8,170.2,110.4z M81,132.1c-7.3,4.6-19.7,4.8-25.3,1.1
	c-4-2.6-7.2-6.2-8.6-12.8c-0.6-3.2-0.8-6.5-0.6-9.7c0.3-8,6.7-11.2,11.9-12.5c2.2-0.5,4.5-0.9,6.8-0.9c0,0,13.9-1.4,20.2,4.6
	S87.9,127.7,81,132.1z M157.4,125.9c-1.5,2.8-3.7,5.2-6.4,6.9c-5.5,3.6-17.6,3.4-24.7-1.1c-6.8-4.2-10.4-23.7-4.2-29.5
	s19.7-4.4,19.7-4.4c2.5,0.1,5.1,0.5,7.5,1.2c4.9,1.4,10.4,4.6,10.7,11.9C160.3,117.6,159.3,122.4,157.4,125.9L157.4,125.9z"></path>
			<ellipse transform="matrix(0.218 -0.976 0.976 0.218 -48.745 196.4101)" fill="#231F20" cx="98.2" cy="128.6"
				rx="2.2" ry="1.4"></ellipse>
			<ellipse transform="matrix(0.9116 -0.411 0.411 0.9116 -43.4017 55.1191)" fill="#231F20" cx="106.5"
				cy="128.5" rx="1.2" ry="2.4"></ellipse>
		</g>
		<g id="svg-name" class="svg-element"
			transform="matrix(0.75,0,0,0.8,68,5)"
			style="cursor: pointer;">
			<g transform="matrix(1,0,0,1,0,0)" fill="#E52629">
				<path
					d="M25 33.95L25 33.95L25 33.95Q25 34.95 24.30 35.65L24.30 35.65L24.30 35.65Q23.60 36.35 22.60 36.35L22.60 36.35L22.60 36.35Q21.60 36.35 20.90 35.65L20.90 35.65L20.90 35.65Q20.20 34.95 20.20 33.95L20.20 33.95L20.20 27.85L20.20 27.85Q18.30 27.85 16.50 27.35L16.50 27.35L16.50 27.35Q14.70 26.85 12.73 25.77L12.73 25.77L12.73 25.77Q10.75 24.70 8.50 23L8.50 23L8.50 23Q6.25 21.30 3.45 18.85L3.45 18.85L3.45 18.85Q3.05 18.50 2.78 18L2.78 18L2.78 18Q2.50 17.50 2.50 16.95L2.50 16.95L2.50 16.95Q2.50 15.95 3.20 15.25L3.20 15.25L3.20 15.25Q3.90 14.55 4.90 14.55L4.90 14.55L4.90 14.55Q5.40 14.55 5.80 14.75L5.80 14.75L5.80 14.75Q6.20 14.95 6.60 15.25L6.60 15.25L6.60 15.25Q9.80 18.05 11.98 19.63L11.98 19.63L11.98 19.63Q14.15 21.20 15.88 21.95L15.88 21.95L15.88 21.95Q17.60 22.70 19.15 22.88L19.15 22.88L19.15 22.88Q20.70 23.05 22.65 23.05L22.65 23.05L22.65 23.05Q24.60 23.05 26.10 22.90L26.10 22.90L26.10 22.90Q27.60 22.75 29.30 22L29.30 22L29.30 22Q31 21.25 33.18 19.67L33.18 19.67L33.18 19.67Q35.35 18.10 38.60 15.25L38.60 15.25L38.60 15.25Q39.45 14.55 40.30 14.55L40.30 14.55L40.30 14.55Q41.30 14.55 42 15.25L42 15.25L42 15.25Q42.70 15.95 42.70 16.95L42.70 16.95L42.70 16.95Q42.70 17.50 42.43 18L42.43 18L42.43 18Q42.15 18.50 41.75 18.85L41.75 18.85L41.75 18.85Q39 21.25 36.70 22.97L36.70 22.97L36.70 22.97Q34.40 24.70 32.38 25.77L32.38 25.77L32.38 25.77Q30.35 26.85 28.53 27.35L28.53 27.35L28.53 27.35Q26.70 27.85 25 27.85L25 27.85L25 33.95ZM58.70 19.85L46.95 35.45L46.95 35.45Q46.20 36.35 45.10 36.35L45.10 36.35L45.10 36.35Q44.10 36.35 43.40 35.65L43.40 35.65L43.40 35.65Q42.70 34.95 42.70 33.95L42.70 33.95L42.70 33.95Q42.70 33.05 43.20 32.50L43.20 32.50L55.35 16.15L55.35 16.15Q56.20 15 57.60 14.27L57.60 14.27L57.60 14.27Q59 13.55 60.60 13.55L60.60 13.55L60.60 13.55Q62.10 13.55 63.45 14.20L63.45 14.20L63.45 14.20Q64.80 14.85 65.65 16L65.65 16L77.80 32.25L77.80 32.25Q78.10 32.60 78.30 33.02L78.30 33.02L78.30 33.02Q78.50 33.45 78.50 33.95L78.50 33.95L78.50 33.95Q78.50 34.95 77.80 35.65L77.80 35.65L77.80 35.65Q77.10 36.35 76.10 36.35L76.10 36.35L76.10 36.35Q74.90 36.35 74.20 35.40L74.20 35.40L62.55 19.85L62.55 19.85Q62.20 19.45 61.68 18.97L61.68 18.97L61.68 18.97Q61.15 18.50 60.60 18.50L60.60 18.50L60.60 18.50Q60.05 18.50 59.53 18.97L59.53 18.97L59.53 18.97Q59 19.45 58.70 19.85L58.70 19.85ZM117.55 16.95L117.55 16.95L117.55 16.95Q117.55 15.95 118.25 15.25L118.25 15.25L118.25 15.25Q118.95 14.55 119.95 14.55L119.95 14.55L119.95 14.55Q120.95 14.55 121.65 15.25L121.65 15.25L121.65 15.25Q122.35 15.95 122.35 16.95L122.35 16.95L122.35 31.50L122.35 31.50Q122.35 33.55 120.97 34.95L120.97 34.95L120.97 34.95Q119.60 36.35 117.55 36.35L117.55 36.35L117.55 36.35Q116.85 36.35 116.18 36.15L116.18 36.15L116.18 36.15Q115.50 35.95 114.95 35.60L114.95 35.60L92.05 21.60L92.05 21.60Q91.10 21.05 90.47 20.72L90.47 20.72L90.47 20.72Q89.85 20.40 89.45 20.40L89.45 20.40L89.45 20.40Q88.70 20.40 88.50 21.35L88.50 21.35L88.50 21.35Q88.30 22.30 88.30 24.10L88.30 24.10L88.30 33.95L88.30 33.95Q88.30 34.95 87.60 35.65L87.60 35.65L87.60 35.65Q86.90 36.35 85.90 36.35L85.90 36.35L85.90 36.35Q84.90 36.35 84.20 35.65L84.20 35.65L84.20 35.65Q83.50 34.95 83.50 33.95L83.50 33.95L83.50 19.40L83.50 19.40Q83.50 17.35 84.88 15.95L84.88 15.95L84.88 15.95Q86.25 14.55 88.30 14.55L88.30 14.55L88.30 14.55Q89 14.55 89.67 14.75L89.67 14.75L89.67 14.75Q90.35 14.95 90.90 15.30L90.90 15.30L113.80 29.30L113.80 29.30Q114.75 29.85 115.38 30.17L115.38 30.17L115.38 30.17Q116 30.50 116.40 30.50L116.40 30.50L116.40 30.50Q117.15 30.50 117.35 29.55L117.35 29.55L117.35 29.55Q117.55 28.60 117.55 26.80L117.55 26.80L117.55 16.95Z">
				</path>
			</g>
		</g>
	</g>
</svg>